<svg width="375" height="1825" viewBox="0 0 375 1825" fill="none" xmlns="http://www.w3.org/2000/svg">
<path d="M281.335 0.231209C323.857 3.19191 363.828 23.5152 375 44.4869V1792.28C375 1792.28 316.31 1800.15 243.942 1803.9C196.852 1806.35 141.895 1825 98.4347 1825C57.5336 1825 2.59631 1803.9 2.59631 1803.9L0 74.9115C30.018 74.9115 78.0921 38.4833 128.762 38.4833C179.431 38.4833 228.182 -3.46967 281.335 0.231209Z" fill="#000080" fill-opacity="0.24"/>
<path d="M86.443 23.563C43.9212 26.3956 11.1721 53.1408 0 73.2051V1816.39C0 1816.39 81.0484 1775.49 130.68 1775.49C187.199 1775.49 229.875 1818.54 285.736 1818.54C325.239 1818.54 375 1793.57 375 1793.57V18.9431C345.212 2.15257 300.971 49.3963 250.301 49.3963C199.631 49.3963 139.595 20.0223 86.443 23.563Z" fill="url(#paint0_radial)"/>
<defs>
<radialGradient id="paint0_radial" cx="0" cy="0" r="1" gradientUnits="userSpaceOnUse" gradientTransform="translate(-12.6563 74.1798) rotate(77.0164) scale(1725.43 808.821)">
<stop stop-color="#00D4FF"/>
<stop offset="0.366232" stop-color="#06429F"/>
<stop offset="0.64032" stop-color="#081E87"/>
<stop offset="1" stop-color="#090979"/>
</radialGradient>
</defs>
</svg>
