<svg width="1340" height="2423" viewBox="0 0 1340 2423" fill="none" xmlns="http://www.w3.org/2000/svg">
<path d="M1030.28 0.306969C1170.89 4.23781 1303.06 31.2205 1340 59.0639V2379.56C1340 2379.56 1145.93 2390.01 906.635 2394.99C750.922 2398.23 569.199 2423 425.491 2423C290.245 2423 108.585 2394.99 108.585 2394.99L100 99.4579C199.26 99.4579 358.225 51.0932 525.772 51.0932C693.319 51.0932 854.523 -4.60658 1030.28 0.306969Z" fill="#000080" fill-opacity="0.24"/>
<path d="M385.838 31.2839C245.233 35.0446 136.943 70.5535 100 97.1923V2411.57C100 2411.57 368 2357.26 532.116 2357.26C719.004 2357.26 860.121 2414.43 1044.83 2414.43C1175.46 2414.43 1340 2381.27 1340 2381.27V25.1501C1241.5 2.85781 1095.21 65.5819 927.662 65.5819C760.115 65.5819 561.595 26.5829 385.838 31.2839Z" fill="url(#paint0_radial)"/>
<ellipse cx="69.8146" cy="1982.87" rx="139.887" ry="139.64" transform="rotate(-54.6758 69.8146 1982.87)" fill="url(#paint1_linear)"/>
<defs>
<radialGradient id="paint0_radial" cx="0" cy="0" r="1" gradientUnits="userSpaceOnUse" gradientTransform="translate(58.1499 98.4863) rotate(60.1336) scale(2574.1 2380.15)">
<stop stop-color="#00D4FF"/>
<stop offset="0.366232" stop-color="#06429F"/>
<stop offset="0.64032" stop-color="#081E87"/>
<stop offset="1" stop-color="#090979"/>
</radialGradient>
<linearGradient id="paint1_linear" x1="-113.964" y1="1823.08" x2="186.724" y2="2071.33" gradientUnits="userSpaceOnUse">
<stop stop-color="white" stop-opacity="0.08"/>
<stop offset="1" stop-color="white" stop-opacity="0"/>
</linearGradient>
</defs>
</svg>
