<svg width="375" height="562" viewBox="0 0 375 562" fill="none" xmlns="http://www.w3.org/2000/svg">
<path d="M375 22.8829C375 22.8829 316.121 41.9805 266.821 41.9806C216.811 41.9808 161.979 0.999864 112.712 1C63.0036 1.00014 -7.53999e-06 22.8829 -7.53999e-06 22.8829V535.341C-7.53999e-06 535.341 51.8231 521.416 89.1418 521.416C150.682 521.416 193.905 562 256.094 562C303.333 562 375 535.341 375 535.341V22.8829Z" fill="#C2C2E1"/>
<path d="M0 21.8829C0 21.8829 58.8791 40.9805 108.179 40.9806C158.189 40.9808 213.021 -0.00013614 262.288 3.39197e-10C311.996 0.000137356 375 21.8829 375 21.8829V534.341C375 534.341 323.177 520.416 285.858 520.416C224.318 520.416 181.095 561 118.906 561C71.6669 561 0 534.341 0 534.341V21.8829Z" fill="url(#paint0_radial)"/>
<defs>
<radialGradient id="paint0_radial" cx="0" cy="0" r="1" gradientUnits="userSpaceOnUse" gradientTransform="translate(-12.6563 18.3077) rotate(53.4576) scale(651.066 666.869)">
<stop stop-color="#00D4FF"/>
<stop offset="0.366232" stop-color="#06429F"/>
<stop offset="0.64032" stop-color="#081E87"/>
<stop offset="1" stop-color="#090979"/>
</radialGradient>
</defs>
</svg>
