<svg width="87" height="87" viewBox="0 0 87 87" fill="none" xmlns="http://www.w3.org/2000/svg">
<path d="M67.6241 10.6235C67.6241 9.68641 66.8644 8.92676 65.9273 8.92676H65.9176C64.9805 8.92676 64.2256 9.68641 64.2256 10.6235C64.2256 11.5607 64.99 12.3203 65.9271 12.3203C66.8643 12.3203 67.6241 11.5607 67.6241 10.6235Z" fill="white"/>
<path d="M76.7774 10.6235C76.7774 9.68641 76.0178 8.92676 75.0806 8.92676H75.0709C74.1338 8.92676 73.3789 9.68641 73.3789 10.6235C73.3789 11.5607 74.1433 12.3203 75.0804 12.3203C76.0176 12.3203 76.7774 11.5607 76.7774 10.6235Z" fill="white"/>
<path d="M58.4766 10.6235C58.4766 9.68641 57.717 8.92676 56.7798 8.92676H56.7702C55.833 8.92676 55.0781 9.68641 55.0781 10.6235C55.0781 11.5607 55.8425 12.3203 56.7797 12.3203C57.7168 12.3203 58.4766 11.5607 58.4766 10.6235Z" fill="white"/>
<path d="M10.4121 10.6235C10.4121 11.5607 11.1718 12.3203 12.1089 12.3203H37.5804C38.5175 12.3203 39.2772 11.5607 39.2772 10.6235C39.2772 9.68641 38.5175 8.92676 37.5804 8.92676H12.1089C11.1719 8.92676 10.4121 9.68641 10.4121 10.6235Z" fill="white"/>
<path d="M81.5539 0H28.5043C27.5672 0 26.8075 0.759651 26.8075 1.69679C26.8075 2.63392 27.5672 3.39357 28.5043 3.39357H81.5539C82.6843 3.39357 83.6038 4.31103 83.6038 5.43871V17.8536H3.58498V5.43871C3.58498 4.31103 4.50243 3.39357 5.63012 3.39357H13.2677C14.2048 3.39357 14.9645 2.63392 14.9645 1.69679C14.9645 0.759651 14.2048 0 13.2677 0H5.63012C2.63122 0 0.191406 2.43981 0.191406 5.43871V81.4318C0.191406 84.4335 2.63122 86.8755 5.63012 86.8755H81.5539C84.5553 86.8755 86.9973 84.4335 86.9973 81.4318V5.43871C86.9973 2.43981 84.5553 0 81.5539 0ZM81.5539 83.4819H5.63012C4.50243 83.4819 3.58498 82.5622 3.58498 81.4318V21.2472H83.6038V81.4318C83.6038 82.5622 82.6841 83.4819 81.5539 83.4819Z" fill="white"/>
<path d="M16.0477 64.9209C12.1498 64.9209 8.97852 68.092 8.97852 71.99C8.97852 75.8854 12.1496 79.0545 16.0477 79.0545C19.943 79.0545 23.1119 75.8854 23.1119 71.99C23.1119 68.0922 19.943 64.9209 16.0477 64.9209ZM16.0477 75.661C14.021 75.661 12.3721 74.0143 12.3721 71.9902C12.3721 69.9636 14.0209 68.3146 16.0477 68.3146C18.0716 68.3146 19.7183 69.9636 19.7183 71.9902C19.7183 74.0143 18.0718 75.661 16.0477 75.661Z" fill="white"/>
<path d="M34.4109 64.9209C30.5156 64.9209 27.3467 68.092 27.3467 71.99C27.3467 75.8854 30.5158 79.0545 34.4109 79.0545C38.3061 79.0545 41.4751 75.8854 41.4751 71.99C41.4751 68.0922 38.3062 64.9209 34.4109 64.9209ZM34.4109 75.661C32.3868 75.661 30.7403 74.0143 30.7403 71.9902C30.7403 69.9636 32.387 68.3146 34.4109 68.3146C36.4348 68.3146 38.0816 69.9636 38.0816 71.9902C38.0816 74.0143 36.435 75.661 34.4109 75.661Z" fill="white"/>
<path d="M52.7732 64.9209C48.8779 64.9209 45.709 68.092 45.709 71.99C45.709 75.8854 48.8781 79.0545 52.7732 79.0545C56.6711 79.0545 59.8424 75.8854 59.8424 71.99C59.8422 68.0922 56.6711 64.9209 52.7732 64.9209ZM52.7732 75.661C50.7491 75.661 49.1026 74.0143 49.1026 71.9902C49.1026 69.9636 50.7493 68.3146 52.7732 68.3146C54.7999 68.3146 56.4488 69.9636 56.4488 71.9902C56.4486 74.0143 54.7999 75.661 52.7732 75.661Z" fill="white"/>
<path d="M71.1414 64.9209C67.2436 64.9209 64.0723 68.092 64.0723 71.99C64.0723 75.8854 67.2434 79.0545 71.1414 79.0545C75.0367 79.0545 78.2057 75.8854 78.2057 71.99C78.2057 68.0922 75.0366 64.9209 71.1414 64.9209ZM71.1414 75.661C69.1148 75.661 67.4658 74.0143 67.4658 71.9902C67.4658 69.9636 69.1146 68.3146 71.1414 68.3146C73.1655 68.3146 74.8121 69.9636 74.8121 71.9902C74.8121 74.0143 73.1653 75.661 71.1414 75.661Z" fill="white"/>
<path d="M8.98445 56.6509C9.04554 57.5281 9.79518 58.2286 10.6777 58.2286H48.654C49.5799 58.2286 50.3531 57.456 50.3531 56.5318V27.813C50.3531 26.8759 49.5935 26.1162 48.6563 26.1162H10.6753C9.73817 26.1162 8.97852 26.8759 8.97852 27.813V56.5316C8.98055 56.5715 8.98242 56.6112 8.98445 56.6509ZM37.1133 54.835L33.952 49.8526L38.1809 43.1911L45.5701 54.835H37.1133ZM33.0943 54.835H13.7619L23.4299 39.6035L33.0943 54.835ZM46.9596 29.5098V50.6913L39.6138 39.1158C39.3026 38.6253 38.762 38.3282 38.1814 38.3282C37.6006 38.3282 37.0602 38.6253 36.7488 39.1156L31.9428 46.686L24.863 35.5279C24.5518 35.0374 24.0112 34.7403 23.4304 34.7401C23.4304 34.7401 23.4304 34.7401 23.4302 34.7401C22.8494 34.7401 22.309 35.0372 21.9976 35.5276L12.3719 50.6923V29.5098H46.9596Z" fill="white"/>
<path d="M57.5151 29.5098H76.4408C77.3779 29.5098 78.1376 28.7501 78.1376 27.813C78.1376 26.8759 77.3779 26.1162 76.4408 26.1162H57.5151C56.578 26.1162 55.8184 26.8759 55.8184 27.813C55.8184 28.7501 56.578 29.5098 57.5151 29.5098Z" fill="white"/>
<path d="M57.5151 38.9131H76.4408C77.3779 38.9131 78.1376 38.1535 78.1376 37.2163C78.1376 36.2792 77.3779 35.5195 76.4408 35.5195H57.5151C56.578 35.5195 55.8184 36.2792 55.8184 37.2163C55.8184 38.1535 56.578 38.9131 57.5151 38.9131Z" fill="white"/>
<path d="M57.5151 48.3115H76.4408C77.3779 48.3115 78.1376 47.5519 78.1376 46.6148C78.1376 45.6776 77.3779 44.918 76.4408 44.918H57.5151C56.578 44.918 55.8184 45.6776 55.8184 46.6148C55.8184 47.5519 56.578 48.3115 57.5151 48.3115Z" fill="white"/>
<path d="M57.5151 57.709H76.4408C77.3779 57.709 78.1376 56.9494 78.1376 56.0122C78.1376 55.0751 77.3779 54.3154 76.4408 54.3154H57.5151C56.578 54.3154 55.8184 55.0751 55.8184 56.0122C55.8184 56.9494 56.578 57.709 57.5151 57.709Z" fill="white"/>
<path d="M20.8861 3.39357H20.8957C21.8329 3.39357 22.5878 2.63392 22.5878 1.69679C22.5878 0.759651 21.8234 0 20.8862 0C19.9491 0 19.1895 0.759651 19.1895 1.69679C19.1895 2.63392 19.9491 3.39357 20.8861 3.39357Z" fill="white"/>
</svg>
