<svg width="186" height="187" viewBox="0 0 186 187" fill="none" xmlns="http://www.w3.org/2000/svg">
<path d="M104.989 48.8809C107.609 48.8809 109.345 46.2007 108.36 43.839C107.707 42.2443 105.988 41.3128 104.278 41.6573C102.524 42.013 101.341 43.5377 101.341 45.2328C101.341 47.1843 102.919 48.8809 104.989 48.8809Z" fill="white"/>
<path d="M93.0001 105.173C111.234 105.173 126.068 90.3394 126.068 72.1054C126.068 64.6516 123.516 57.3412 118.881 51.5208C117.627 49.9443 115.331 49.683 113.754 50.9388C112.178 52.1939 111.917 54.4892 113.173 56.0657C116.835 60.6657 118.771 66.2121 118.771 72.1054C118.771 86.3155 107.21 97.8764 93.0001 97.8764C78.7901 97.8764 67.2296 86.3155 67.2296 72.1054C67.2296 58.4084 77.932 47.105 91.5944 46.3721C92.3489 46.3316 93.0377 46.0645 93.5981 45.6405C96.4527 43.481 94.7915 38.8974 91.2036 39.0857C73.6684 40.0263 59.9326 54.53 59.9326 72.1054C59.9323 90.339 74.7666 105.173 93.0001 105.173Z" fill="white"/>
<path d="M169.883 25.4106H147.96C146.842 23.7677 146.145 23.3609 141.539 18.6704C136.613 13.7457 128.599 13.7457 123.673 18.6704L118.097 24.2475C115.211 22.7308 112.199 21.4816 109.093 20.5136V12.6318C109.094 5.66619 103.427 -0.000976562 96.4607 -0.000976562H89.5385C82.5729 -0.000976562 76.9057 5.66619 76.9057 12.6318V20.514C73.8008 21.4819 70.7883 22.7315 67.9027 24.2482L62.3257 18.6708C57.4002 13.7454 49.386 13.7454 44.4602 18.6708C39.931 23.2832 39.159 23.7651 38.0393 25.411H16.1171C7.23017 25.411 0 32.6408 0 41.5281V127.058C0 135.92 7.20463 143.175 16.1167 143.175H79.3345L74.5506 160.35H63.5859C56.9953 160.35 51.6335 165.712 51.6335 172.303V179.504H38.2407C36.2256 179.504 34.5922 181.137 34.5922 183.152C34.5922 185.167 36.2256 186.801 38.2407 186.801H147.759C149.774 186.801 151.407 185.167 151.407 183.152C151.407 181.137 149.774 179.504 147.759 179.504H134.366V172.302C134.366 165.712 129.004 160.35 122.414 160.35H111.449L106.665 143.175H169.883C178.77 143.175 186 135.945 186 127.058C186 122.521 186 44.5373 186 41.5277C186 32.6408 178.77 25.4106 169.883 25.4106ZM169.883 32.7075C174.746 32.7075 178.703 36.6643 178.703 41.5277V111.062H150.094C149.931 107.991 148.667 105.013 146.434 102.779L140.857 97.2026C142.374 94.3167 143.623 91.3049 144.591 88.1993C152.564 88.1792 152.651 88.2474 153.763 88.134C160.125 87.486 165.106 82.0972 165.106 75.5665V68.6442C165.106 61.6782 159.44 56.0114 152.473 56.0114H144.591C143.623 52.9058 142.374 49.894 140.857 47.0081L146.434 41.4314C148.853 39.0121 150.089 35.8441 150.138 32.7075H169.883ZM44.7251 28.7256L49.6199 23.8305C51.7006 21.7501 55.0857 21.7501 57.166 23.8305L64.6946 31.3594C65.8749 32.5386 67.7054 32.7677 69.1403 31.9147C72.9887 29.6249 77.1312 27.9069 81.4531 26.808C83.0705 26.3972 84.203 24.941 84.203 23.2722V12.6318C84.203 9.68972 86.5968 7.29596 89.5389 7.29596H96.4611C99.4032 7.29596 101.797 9.68972 101.797 12.6318V23.2722C101.797 24.941 102.929 26.3972 104.547 26.808C108.869 27.9065 113.011 29.6249 116.86 31.9147C118.294 32.7681 120.124 32.5393 121.305 31.3594L128.834 23.8305C130.914 21.7508 134.299 21.7501 136.38 23.8305C141.302 28.9153 142.309 29.1678 142.748 31.532C143.07 33.3015 142.493 35.0524 141.275 36.2714L133.746 43.8C132.566 44.9803 132.337 46.8111 133.191 48.246C135.195 51.6132 136.761 55.2054 137.857 58.9466C138.013 59.4811 138.16 60.0185 138.298 60.5588C138.709 62.1762 140.165 63.3083 141.833 63.3083H152.474C155.416 63.3083 157.81 65.7021 157.81 68.6442V75.5665C157.81 78.5086 155.416 80.9023 152.474 80.9023H141.833C140.165 80.9023 138.709 82.0348 138.298 83.6522C137.199 87.9742 135.481 92.1166 133.191 95.965C133.138 96.0548 133.088 96.146 133.044 96.2383C132.37 97.6258 132.64 99.3038 133.747 100.411C140.439 107.536 142.442 108.053 142.799 111.062H43.2011C43.3387 109.903 43.8593 108.804 44.7247 107.939L52.2534 100.41C53.4336 99.2301 53.6624 97.3993 52.809 95.9647C50.5185 92.1155 48.8004 87.9731 47.7026 83.6518C47.2918 82.0341 45.8353 80.902 44.1665 80.902H33.5261C30.584 80.902 28.1903 78.5082 28.1903 75.5661V68.6439C28.1903 65.7017 30.584 63.308 33.5261 63.308H44.1669C45.8357 63.308 47.2918 62.1755 47.703 60.5581C48.8015 56.2358 50.5192 52.0937 52.8094 48.2456C53.6595 46.8169 53.4395 44.9854 52.2537 43.7996C44.8729 36.3301 44.6284 36.3352 44.0206 35.3983C42.6641 33.3121 42.9344 30.5155 44.7251 28.7256ZM16.1171 32.7075H35.8619C35.9115 35.8832 37.1768 39.0427 39.5654 41.4314L45.1425 47.0081C43.6258 49.894 42.3762 52.9066 41.4083 56.0114H33.5261C26.5605 56.0114 20.8933 61.6782 20.8933 68.6442V75.5665C20.8933 82.5394 26.5674 88.1993 33.5261 88.1993H41.4083C42.3762 91.3041 43.6255 94.3167 45.1425 97.2026L39.5654 102.779C37.3319 105.013 36.0684 107.991 35.906 111.062H7.29694V41.5277C7.29694 36.6643 11.2537 32.7075 16.1171 32.7075ZM127.069 172.302V179.504H58.9304V172.302C58.9304 169.735 61.0188 167.646 63.5859 167.646H122.414C124.981 167.646 127.069 169.735 127.069 172.302ZM103.874 160.35H82.1252L86.9091 143.175H99.0898L103.874 160.35ZM178.703 127.058C178.703 131.921 174.746 135.878 169.883 135.878C164.437 135.878 21.1976 135.878 16.1167 135.878C11.2391 135.878 7.29657 131.908 7.29657 127.058V118.359H178.702V127.058H178.703Z" fill="white"/>
</svg>
