<svg width="86" height="77" viewBox="0 0 86 77" fill="none" xmlns="http://www.w3.org/2000/svg">
<path d="M52.0706 28.2168C43.9206 28.2168 37.29 34.8473 37.29 42.9974C37.29 51.1474 43.9206 57.778 52.0706 57.778C60.2207 57.778 66.8512 51.1474 66.8512 42.9974C66.8512 34.8473 60.2207 28.2168 52.0706 28.2168ZM52.0706 54.4187C45.7727 54.4187 40.6493 49.2953 40.6493 42.9974C40.6493 36.6995 45.7727 31.576 52.0706 31.576C58.3685 31.576 63.492 36.6995 63.492 42.9974C63.492 49.2953 58.3685 54.4187 52.0706 54.4187Z" fill="white"/>
<path d="M52.0702 35.4395C51.1425 35.4395 50.3906 36.1913 50.3906 37.1191C50.3906 38.0468 51.1425 38.7987 52.0702 38.7987C54.385 38.7987 56.2686 40.6823 56.2686 42.997C56.2686 43.9248 57.0205 44.6767 57.9482 44.6767C58.8759 44.6767 59.6278 43.9248 59.6278 42.997C59.6278 38.8295 56.2378 35.4395 52.0702 35.4395Z" fill="white"/>
<path d="M10.3562 12.6638C9.92974 11.8404 8.91672 11.5183 8.09266 11.9441C7.2686 12.3705 6.94646 13.3842 7.37292 14.2083L11.8941 22.9422C12.1867 23.5078 12.7785 23.8536 13.411 23.8496C14.0474 23.8398 14.6241 23.4711 14.8997 22.897L17.6369 17.1981L20.6097 22.9422C20.899 23.4999 21.4744 23.8496 22.1017 23.8496H22.1266C22.7637 23.8398 23.3397 23.4711 23.6159 22.897L27.8104 14.163C28.2119 13.3271 27.8596 12.3233 27.0237 11.9218C26.1872 11.5202 25.184 11.8726 24.7825 12.7091L22.0452 18.4079L19.0718 12.6638C18.7792 12.0982 18.1887 11.7512 17.5556 11.7564C16.9185 11.7663 16.3418 12.135 16.0662 12.7091L13.3296 18.4079L10.3562 12.6638Z" fill="white"/>
<path d="M21.163 3.35825C21.6052 3.35825 22.0382 3.17848 22.3505 2.86617C22.6635 2.55387 22.8426 2.12019 22.8426 1.67863C22.8426 1.23708 22.6635 0.8034 22.3505 0.491097C22.0382 0.178794 21.6052 -0.000976562 21.163 -0.000976562C20.7215 -0.000976562 20.2884 0.178794 19.9761 0.491097C19.6632 0.8034 19.4834 1.23708 19.4834 1.67863C19.4834 2.12019 19.6632 2.55387 19.9761 2.86617C20.2884 3.17848 20.7215 3.35825 21.163 3.35825Z" fill="white"/>
<path d="M85.998 28.8883V6.71747C85.998 3.01314 82.9839 -0.000976562 79.2796 -0.000976562H28.2175C27.2904 -0.000976562 26.5378 0.750912 26.5378 1.67863C26.5378 2.60636 27.2904 3.35825 28.2175 3.35825H79.2796C81.1318 3.35825 82.6388 4.8653 82.6388 6.71747V28.8883C82.6388 30.7405 81.1318 32.2476 79.2796 32.2476H71.2175C71.1689 32.2476 71.1217 32.2508 71.0744 32.2548C68.4822 27.687 64.2917 24.1415 59.268 22.3825L61.7578 17.1986L64.7313 22.9421C65.02 23.5005 65.5954 23.8495 66.2226 23.8495H66.2482C66.8846 23.8397 67.4613 23.4709 67.7369 22.8969L71.9313 14.1629C72.3328 13.327 71.9805 12.3238 71.1446 11.9223C70.3088 11.5201 69.3049 11.8724 68.9034 12.709L66.1668 18.4078L63.1934 12.6637C62.9008 12.0981 62.3109 11.7511 61.6765 11.757C61.0394 11.7661 60.4634 12.1349 60.1878 12.709L57.4506 18.4078L54.4778 12.6637C54.0513 11.8403 53.0376 11.5181 52.2136 11.9446C51.3895 12.3711 51.068 13.3841 51.4938 14.2081L55.2113 21.3891C54.1858 21.2409 53.1374 21.1621 52.0712 21.1621C50.0065 21.1621 48.0073 21.4508 46.1125 21.9888L49.8713 14.1629C50.2728 13.327 49.9205 12.3238 49.084 11.9223C48.2481 11.5201 47.2443 11.8724 46.8434 12.709L44.1062 18.4078L41.1327 12.6637C40.8401 12.0981 40.2529 11.7511 39.6158 11.757C38.9794 11.7661 38.4027 12.1349 38.1272 12.709L35.3906 18.4078L32.4171 12.6637C31.9907 11.8403 30.9777 11.5181 30.1536 11.9446C29.3295 12.3711 29.0074 13.3841 29.4339 14.2081L33.955 22.9421C34.2477 23.5077 34.8368 23.8534 35.4719 23.8495C36.1083 23.8397 36.6851 23.4709 36.9606 22.8969L39.6979 17.1986L42.6706 22.9421C42.7205 23.0386 42.7815 23.1258 42.8478 23.2092C38.7288 25.1368 35.3066 28.3123 33.0713 32.2476H6.7204C4.86823 32.2476 3.36118 30.7405 3.36118 28.8883V6.71747C3.36118 4.8653 4.86823 3.35825 6.7204 3.35825H13.6055C14.5332 3.35825 15.2851 2.60636 15.2851 1.67863C15.2851 0.750912 14.5332 -0.000976562 13.6055 -0.000976562H6.7204C3.01607 -0.000976562 0.00195312 3.01314 0.00195312 6.71747V28.8883C0.00195312 32.5933 3.01607 35.6068 6.7204 35.6068H31.5242C30.6909 37.9162 30.2356 40.4042 30.2356 42.9971C30.2356 55.0371 40.0305 64.832 52.0706 64.832C56.0268 64.832 59.741 63.7744 62.9447 61.9268L76.2753 75.2574C77.3854 76.3675 78.844 76.9226 80.3025 76.9226C81.761 76.9226 83.2195 76.3675 84.3296 75.2574C86.5505 73.0365 86.5505 69.4234 84.3296 67.2025L79.092 61.9649C78.4359 61.3094 77.3723 61.3088 76.7169 61.9649C76.0608 62.621 76.0608 63.6838 76.7169 64.34L81.9545 69.5782C82.8652 70.4889 82.8652 71.971 81.9545 72.8823C81.0438 73.793 79.5617 73.793 78.6511 72.8823L65.762 59.9926C70.7247 55.9872 73.9055 49.8572 73.9055 42.9971C73.9055 40.4042 73.4502 37.9162 72.6169 35.6068H79.2796C82.9846 35.6068 85.998 32.5927 85.998 28.8883ZM52.0706 61.4728C41.8833 61.4728 33.5948 53.1843 33.5948 42.9971C33.5948 32.8098 41.8833 24.5213 52.0706 24.5213C62.2578 24.5213 70.5463 32.8098 70.5463 42.9971C70.5463 53.1843 62.2584 61.4728 52.0706 61.4728Z" fill="white"/>
<path d="M72.7323 57.9813C72.42 58.2936 72.2402 58.7267 72.2402 59.1689C72.2402 59.6104 72.42 60.0434 72.7323 60.3564C73.0466 60.6687 73.4783 60.8485 73.9198 60.8485C74.3614 60.8485 74.7951 60.6687 75.1074 60.3564C75.4217 60.0434 75.5995 59.6104 75.5995 59.1689C75.5995 58.7267 75.4217 58.2936 75.1074 57.9813C74.7951 57.669 74.3634 57.4893 73.9198 57.4893C73.4783 57.4893 73.0446 57.669 72.7323 57.9813Z" fill="white"/>
</svg>
